<svg xmlns="http://www.w3.org/2000/svg" width="20" height="20" viewBox="0 0 20 20" fill="none">
  <circle cx="10" cy="10" r="10" fill="#E0E0E0"/>
  <path d="M16.1032 9.23226V6.55269C16.1032 6.31183 15.9226 6.13118 15.7118 6.10108C11.6774 5.67957 10.5032 3.36129 10.443 3.24086C10.3828 3.09032 10.2022 3 10.0516 3C9.87097 3 9.72043 3.09032 9.66022 3.24086C9.6 3.33118 8.45591 5.67957 4.3914 6.10108C4.15054 6.13118 4 6.31183 4 6.55269V9.23226C4 13.8688 9.6 16.8194 9.84086 16.9398C9.90108 16.9699 9.96129 17 10.0516 17C10.1118 17 10.2022 16.9699 10.2624 16.9398C10.5032 16.7892 16.1032 13.8688 16.1032 9.23226ZM12.7914 9.44301L9.93118 12.3032C9.75054 12.4839 9.53978 12.5441 9.32903 12.5441C9.11828 12.5441 8.87742 12.4538 8.72688 12.3032L7.31183 10.8882C6.98065 10.557 6.98065 9.98495 7.31183 9.65376C7.64301 9.32258 8.21505 9.32258 8.54624 9.65376L9.35914 10.4667L11.5871 8.23871C11.9183 7.90753 12.4903 7.90753 12.8215 8.23871C13.1527 8.56989 13.1527 9.08172 12.7914 9.44301Z" fill="#304FFE"/>
</svg>