<svg xmlns="http://www.w3.org/2000/svg" width="32" height="32" viewBox="0 0 32 32" fill="none">
  <rect width="32" height="32" fill="white"/>
  <path d="M10.6909 3.41818C10.6909 2.61818 10.0364 2 9.27273 2H6.18182C5.38182 2 4.76364 2.61818 4.76364 3.41818V5.30909H10.6909V3.41818Z" fill="#304FFE"/>
  <path d="M27.2364 3.41818C27.2364 2.61818 26.6182 2 25.8182 2H22.7273C21.9273 2 21.3091 2.61818 21.3091 3.41818V5.30909H27.2364V3.41818Z" fill="#304FFE"/>
  <path d="M32 27.9273V8.65455C32 7.38182 30.9818 6.36364 29.7091 6.36364H2.29091C1.01818 6.36364 0 7.38182 0 8.65455V27.9273C0 29.2 1.01818 30.2182 2.29091 30.2182H29.6727C30.9455 30.2182 32 29.2 32 27.9273ZM9.16364 12.8H8.76364V13.2C8.76364 13.7818 8.29091 14.2909 7.67273 14.2909C7.05455 14.2909 6.58182 13.8182 6.58182 13.2V12.8H6.18182C5.6 12.8 5.09091 12.3273 5.09091 11.7091C5.09091 11.1273 5.56364 10.6182 6.18182 10.6182H6.58182V10.2182C6.58182 9.63637 7.05455 9.12728 7.67273 9.12728C8.29091 9.12728 8.76364 9.6 8.76364 10.2182V10.6182H9.16364C9.74545 10.6182 10.2545 11.0909 10.2545 11.7091C10.2545 12.2909 9.78182 12.8 9.16364 12.8ZM25.7455 12.8H22.8C22.2182 12.8 21.7091 12.3273 21.7091 11.7091C21.7091 11.1273 22.1818 10.6182 22.8 10.6182H25.7455C26.3273 10.6182 26.8364 11.0909 26.8364 11.7091C26.8364 12.2909 26.3636 12.8 25.7455 12.8Z" fill="#304FFE"/>
</svg>