<svg xmlns="http://www.w3.org/2000/svg" width="32" height="32" viewBox="0 0 32 32" fill="none">
<rect width="32" height="32" fill="#FBFAFA"/>
<path d="M26.2857 16.5725C24.7028 16.5725 23.4285 17.8467 23.4285 19.4296V26.2867C23.4285 27.8696 24.7028 29.1439 26.2857 29.1439H28.5714C30.1542 29.1439 31.4285 27.8696 31.4285 26.2867V19.4296C31.4285 17.8467 30.1542 16.5725 28.5714 16.5725H26.2857ZM25.7142 18.8582H26.8571V20.001H25.7142V18.8582ZM28 18.8582H29.1428V20.001H28V18.8582ZM25.7142 21.1439H26.8571V22.2868H25.7142V21.1439ZM28 21.1439H29.1428V22.2868H28V21.1439ZM25.7142 23.4297H26.8571V24.5725H25.7142V23.4297ZM28 23.4297H29.1428V24.5725H28V23.4297ZM25.7142 25.7154H26.8571V26.8581H25.7142V25.7154ZM28 25.7154H29.1428V26.8581H28V25.7154Z" fill="#304FFE"/>
<path d="M14.2858 18.8582C13.0195 18.8582 12 19.8776 12 21.1439V26.8581C12 28.1244 13.0195 29.1439 14.2858 29.1439H17.7143C18.9806 29.1439 20 28.1244 20 26.8581V21.1439C20 19.8776 18.9806 18.8582 17.7143 18.8582H14.2858ZM14.2858 21.1439H15.4286V22.2868H14.2858V21.1439ZM16.5715 21.1439H17.7143V22.2868H16.5715V21.1439ZM14.2858 23.4297H15.4286V24.5725H14.2858V23.4297ZM16.5715 23.4297H17.7143V24.5725H16.5715V23.4297ZM14.2858 25.7154H15.4286V26.8581H14.2858V25.7154ZM16.5715 25.7154H17.7143V26.8581H16.5715V25.7154Z" fill="#304FFE"/>
<path d="M2.85716 18.8582C1.59087 18.8582 0.571442 19.8776 0.571442 21.1439V26.8581C0.571442 28.1244 1.59087 29.1439 2.85716 29.1439H6.28573C7.55201 29.1439 8.57144 28.1244 8.57144 26.8581V21.1439C8.57144 19.8776 7.55201 18.8582 6.28573 18.8582H2.85716ZM2.85716 21.1439H4.00001V22.2868H2.85716V21.1439ZM5.14287 21.1439H6.28573V22.2868H5.14287V21.1439ZM2.85716 23.4297H4.00001V24.5725H2.85716V23.4297ZM5.14287 23.4297H6.28573V24.5725H5.14287V23.4297ZM2.85716 25.7154H4.00001V26.8581H2.85716V25.7154ZM5.14287 25.7154H6.28573V26.8581H5.14287V25.7154Z" fill="#304FFE"/>
<path fill-rule="evenodd" clip-rule="evenodd" d="M8.00006 4.57144V6.57141C8.00006 6.98651 7.84948 7.38617 7.57595 7.69886L4.70765 10.9777C4.25202 11.4984 4.00006 12.1676 4.00006 12.8595V18H5.14292V12.8595C5.14292 12.4439 5.29349 12.0426 5.56702 11.73L8.43533 8.45326C8.89095 7.93255 9.14291 7.2633 9.14292 6.57141V4.57144H8.00006Z" fill="#304FFE"/>
<path fill-rule="evenodd" clip-rule="evenodd" d="M18.2857 4.57144V7.26794C18.2857 7.62516 18.1742 7.97485 17.9665 8.26568L15.9598 11.0738C15.6137 11.5583 15.4286 12.1392 15.4285 12.7345V18H16.5714V12.7345C16.5714 12.3773 16.6829 12.0275 16.8906 11.7368L18.8973 8.9286C19.2433 8.44417 19.4285 7.86338 19.4285 7.26794V4.57144H18.2857Z" fill="#304FFE"/>
<path fill-rule="evenodd" clip-rule="evenodd" d="M26.8572 4.57144V15.7144H28V4.57144H26.8572Z" fill="#304FFE"/>
<path fill-rule="evenodd" clip-rule="evenodd" d="M0 4V5.14287H32V4H0Z" fill="#304FFE"/>
</svg>