<svg xmlns="http://www.w3.org/2000/svg" width="20" height="20" viewBox="0 0 20 20" fill="none">
  <circle cx="10" cy="10" r="10" fill="#E0E0E0"/>
  <path fill-rule="evenodd" clip-rule="evenodd" d="M5.3061 8.62349C5.59646 8.0044 5.86867 7.3489 6.21347 6.63876C6.39494 6.31101 6.63086 6.00147 7.01195 5.96505H12.9824C13.3816 6.00147 13.5994 6.31101 13.799 6.63876C14.1438 7.3489 14.416 8.0044 14.7064 8.62349H5.3061ZM7.01195 5C6.37679 5 5.97755 5.23671 5.45128 5.98326L4.56206 7.98619H3.20102C3.0014 7.98619 2.6203 9.09691 4.03579 9.13333L3.56396 10.2987C3.56396 11.7554 3.58211 13.2302 3.58211 14.6869C3.58211 14.9965 3.81803 15.2332 4.12653 15.2332H5.95941C6.26791 15.2332 6.50382 14.9965 6.50382 14.6869V13.467H13.4905V14.6869C13.4905 14.9965 13.7446 15.2332 14.0349 15.2332H15.886C16.1945 15.2332 16.4304 14.9965 16.4304 14.6869C16.4304 13.2302 16.4485 11.7554 16.4485 10.2987L15.9586 9.13333C17.3922 9.09691 16.993 7.98619 16.7933 7.98619H15.4323L14.5612 5.98326C14.0168 5.23671 13.6357 5 12.9824 5H7.01195ZM14.4342 10.3897C13.9442 10.3897 13.545 10.7903 13.545 11.2819C13.545 11.7736 13.9442 12.1741 14.4342 12.1741C14.9242 12.1741 15.3234 11.7736 15.3234 11.2819C15.3234 10.7903 14.9242 10.3897 14.4342 10.3897ZM5.56017 10.3897C6.05014 10.3897 6.44938 10.7903 6.44938 11.2819C6.44938 11.7736 6.05014 12.1741 5.56017 12.1741C5.07019 12.1741 4.67095 11.7736 4.67095 11.2819C4.67095 10.7903 5.07019 10.3897 5.56017 10.3897Z" fill="#304FFE"/>
</svg>