<svg xmlns="http://www.w3.org/2000/svg" width="32" height="32" viewBox="0 0 32 32" fill="none">
  <path d="M13.7347 15.6861C13.5968 15.8039 13.4857 15.9506 13.4091 16.116C13.3325 16.2815 13.2921 16.4617 13.2908 16.6445V26.8178H24.1061V28.1421C24.1061 28.6102 24.2896 29.0591 24.6163 29.3901C24.943 29.721 25.386 29.907 25.848 29.907H28.101C28.563 29.907 29.006 29.721 29.3327 29.3901C29.6593 29.0591 29.8429 28.6102 29.8429 28.1421V19.6996C29.8822 18.1834 29.4612 16.6915 28.6367 15.4256C28.5551 15.3036 28.4704 15.1836 28.3827 15.0658H28.4837H29.2337C29.6986 15.0578 30.1425 14.8676 30.4718 14.535C30.8012 14.2024 30.9906 13.7534 31 13.2824C31 12.7954 31 12.3984 31 12.0417C31 11.5818 30.821 11.1404 30.5017 10.8135C30.1825 10.4865 29.7488 10.3004 29.2949 10.2955C29.0806 10.2955 28.8663 10.2955 28.649 10.2955C27.9188 10.334 27.2289 10.647 26.7143 11.1733C25.8816 9.07968 24.8378 6.70385 24.1827 5.75166C23.0194 4.05819 21.3265 3.58054 20.1541 3.37893C18.5365 3.1172 16.9003 2.99064 15.2622 3.00054C16.6189 4.92598 17.2142 7.29655 16.9309 9.64479C16.6475 11.993 15.5061 14.1485 13.7316 15.6861H13.7347ZM20.4878 17.8944L23.6776 17.0477C23.8769 16.9944 24.0857 16.9879 24.2879 17.0286C24.4902 17.0693 24.6806 17.1562 24.8447 17.2827C25.0088 17.4092 25.1423 17.572 25.2349 17.7586C25.3276 17.9452 25.3771 18.1508 25.3796 18.3597V19.2064C25.3796 19.5708 25.2367 19.9203 24.9824 20.178C24.7281 20.4357 24.3831 20.5804 24.0235 20.5804H20.8337C20.5052 20.5787 20.1884 20.4562 19.9423 20.2358C19.6962 20.0153 19.5375 19.7118 19.4956 19.3817C19.4537 19.0516 19.5315 18.7172 19.7145 18.4409C19.8976 18.1645 20.1734 17.9648 20.4908 17.8789L20.4878 17.8944ZM1.00001 8.49658C0.998861 7.50226 1.21578 6.52009 1.63507 5.62109C2.05437 4.72209 2.66557 3.92871 3.4245 3.29829C3.54724 3.19419 3.70218 3.13711 3.86225 3.13701C4.05361 3.13783 4.2369 3.21521 4.37221 3.3523C4.50752 3.4894 4.58389 3.67511 4.5847 3.86899V6.97059C4.5847 7.22353 4.63387 7.47399 4.72941 7.70768C4.82494 7.94136 4.96497 8.15369 5.14149 8.33255C5.49801 8.69376 5.98154 8.89669 6.48572 8.89669H8.80613C9.05577 8.89669 9.30297 8.84687 9.53362 8.75007C9.76426 8.65328 9.97382 8.5114 10.1503 8.33255C10.3269 8.15369 10.4669 7.94136 10.5624 7.70768C10.658 7.47399 10.7071 7.22353 10.7071 6.97059V3.86899C10.708 3.67511 10.7843 3.4894 10.9196 3.3523C11.0549 3.21521 11.2382 3.13783 11.4296 3.13701C11.5897 3.13711 11.7446 3.19419 11.8673 3.29829C12.6169 3.9214 13.2225 4.70339 13.6415 5.58922C14.0606 6.47505 14.2829 7.44317 14.2928 8.42544C14.3027 9.40771 14.1 10.3802 13.6989 11.2746C13.2979 12.1689 12.7082 12.9633 11.9714 13.6018C11.537 13.9769 11.1879 14.4427 10.948 14.9674C10.7081 15.4921 10.5831 16.0632 10.5816 16.6414V27.9002C10.5816 28.176 10.528 28.449 10.4239 28.7038C10.3197 28.9585 10.1671 29.19 9.97463 29.385C9.78218 29.58 9.55372 29.7346 9.30228 29.8402C9.05084 29.9457 8.78135 30 8.50919 30H6.78266C6.23301 30 5.70587 29.7788 5.31722 29.385C4.92856 28.9912 4.71021 28.4571 4.71021 27.9002V16.6445C4.70872 16.0663 4.58373 15.4952 4.34383 14.9705C4.10393 14.4458 3.7548 13.98 3.32041 13.6049C2.5917 12.9744 2.0068 12.1911 1.60617 11.3091C1.20554 10.4271 0.998716 9.46749 1.00001 8.49658Z" fill="#304FFE"/>
</svg>