<svg xmlns="http://www.w3.org/2000/svg" width="20" height="20" viewBox="0 0 20 20" fill="none">
  <circle cx="10" cy="10" r="10" fill="#E0E0E0"/>
  <path d="M10.02 4.96C8.82936 4.96 7.66545 5.31307 6.67547 5.97455C5.68549 6.63604 4.91389 7.57623 4.45825 8.67625C4.00261 9.77626 3.88339 10.9867 4.11568 12.1544C4.34796 13.3222 4.92131 14.3949 5.76322 15.2368C6.60513 16.0787 7.67779 16.652 8.84556 16.8843C10.0133 17.1166 11.2237 16.9974 12.3238 16.5418C13.4238 16.0861 14.364 15.3145 15.0254 14.3245C15.6869 13.3345 16.04 12.1706 16.04 10.98C16.0381 9.38396 15.4033 7.85383 14.2747 6.72526C13.1462 5.5967 11.616 4.96185 10.02 4.96ZM12.589 13.731C12.5234 13.8057 12.4427 13.8655 12.3521 13.9065C12.2616 13.9476 12.1634 13.9689 12.064 13.969C11.8914 13.9705 11.7244 13.9081 11.595 13.794L9.558 11.988C9.48333 11.9224 9.42349 11.8417 9.38245 11.7511C9.34142 11.6606 9.32013 11.5624 9.32 11.463V7.963C9.32 7.77735 9.39375 7.5993 9.52503 7.46802C9.6563 7.33675 9.83435 7.263 10.02 7.263C10.2057 7.263 10.3837 7.33675 10.515 7.46802C10.6463 7.5993 10.72 7.77735 10.72 7.963V11.12L12.526 12.716C12.5991 12.777 12.6589 12.8523 12.7019 12.9372C12.7449 13.0221 12.7701 13.1149 12.776 13.2099C12.7819 13.3049 12.7683 13.4001 12.7362 13.4897C12.704 13.5793 12.654 13.6614 12.589 13.731ZM8.249 3.889L12.12 4.4H7.92C7.73435 4.4 7.5563 4.32625 7.42503 4.19497C7.29375 4.0637 7.22 3.88565 7.22 3.7C7.22 3.51435 7.29375 3.3363 7.42503 3.20503C7.5563 3.07375 7.73435 3 7.92 3H12.12C12.3057 3 12.4837 3.07375 12.615 3.20503C12.7463 3.3363 12.82 3.51435 12.82 3.7C12.82 3.88565 12.7463 4.0637 12.615 4.19497C12.4837 4.32625 12.3057 4.4 12.12 4.4L8.249 3.889Z" fill="#304FFE"/>
</svg>