<svg xmlns="http://www.w3.org/2000/svg" width="32" height="33" viewBox="0 0 32 33" fill="none">
<rect width="32" height="32" fill="white"/>
<path d="M0.937117 30.578H3.74847C3.74847 30.3772 3.68153 30.1764 3.68153 29.9756C3.68153 27.9005 5.35496 26.2941 7.36306 26.2941C9.43811 26.2941 11.1115 28.0344 11.0446 30.1095C11.0446 30.2433 11.0446 30.4442 10.9777 30.578H20.3488C20.3488 30.3772 20.2819 30.1764 20.2819 29.9756C20.2819 27.6997 22.4239 25.8255 24.7667 26.361C26.3062 26.6957 27.4441 27.9675 27.645 29.507C27.7119 29.8417 27.7119 30.1764 27.645 30.578H30.2555C30.9249 30.578 31.4604 29.9756 31.3265 29.3062C30.7241 25.0223 26.9756 21.6754 22.5578 21.6754H22.2231L16.8012 15.3833C16.6004 15.1156 16.2657 14.9817 15.931 14.9817H4.8864C4.3509 14.9817 3.88234 15.3164 3.74847 15.8519L2.27586 21.6754H2.14198C0.937117 21.6754 0 22.6125 0 23.8174V29.6409C0 30.1095 0.401622 30.578 0.937117 30.578ZM19.144 21.6754H11.4462V17.3245H15.3955L19.144 21.6754ZM5.75658 17.2576H9.10342V21.6085H4.68559L5.75658 17.2576Z" fill="#304FFE"/>
<path d="M7.36304 32.1176C8.54603 32.1176 9.50503 31.1586 9.50503 29.9756C9.50503 28.7926 8.54603 27.8336 7.36304 27.8336C6.18006 27.8336 5.22106 28.7926 5.22106 29.9756C5.22106 31.1586 6.18006 32.1176 7.36304 32.1176Z" fill="#304FFE"/>
<path d="M23.9634 32.1176C25.1464 32.1176 26.1054 31.1586 26.1054 29.9756C26.1054 28.7926 25.1464 27.8336 23.9634 27.8336C22.7804 27.8336 21.8214 28.7926 21.8214 29.9756C21.8214 31.1586 22.7804 32.1176 23.9634 32.1176Z" fill="#304FFE"/>
<path d="M32 11.8792C32 12.3149 31.6436 12.6713 31.2079 12.6713C30.9941 12.6713 30.796 12.7584 30.6456 12.9089C30.4951 13.0594 30.4158 13.2495 30.4158 13.4634C30.4158 13.899 30.0594 14.2555 29.6238 14.2555C29.1802 14.2555 28.8317 13.899 28.8317 13.4634C28.8317 13.0277 28.4753 12.6713 28.0396 12.6713C27.596 12.6713 27.2475 12.3149 27.2475 11.8792C27.2475 11.4436 27.596 11.0871 28.0396 11.0871C28.2535 11.0871 28.4515 11.0079 28.602 10.8574C28.7446 10.7149 28.8317 10.5089 28.8317 10.2951C28.8317 9.85941 29.1802 9.50298 29.6238 9.50298C30.0594 9.50298 30.4158 9.85941 30.4158 10.2951C30.4158 10.5089 30.4951 10.7069 30.6456 10.8574C30.796 11.0079 30.9941 11.0871 31.2079 11.0871C31.6436 11.0871 32 11.4436 32 11.8792Z" fill="#304FFE"/>
<path d="M4.75248 5.64554C4.75248 6.08118 4.39604 6.43762 3.9604 6.43762C3.75446 6.43762 3.55644 6.51683 3.39802 6.67524C3.24753 6.82574 3.16832 7.01584 3.16832 7.2297C3.16832 7.66534 2.81188 8.02178 2.37624 8.02178C1.93267 8.02178 1.58416 7.66534 1.58416 7.2297C1.58416 6.79406 1.22772 6.43762 0.792079 6.43762C0.348515 6.43762 0 6.08118 0 5.64554C0 5.2099 0.348515 4.85346 0.792079 4.85346C1.00594 4.85346 1.21188 4.77425 1.35446 4.62376C1.49703 4.47326 1.58416 4.27524 1.58416 4.06138C1.58416 3.62574 1.93267 3.2693 2.37624 3.2693C2.81188 3.2693 3.16832 3.62574 3.16832 4.06138C3.16832 4.33069 3.29505 4.52079 3.39802 4.62376C3.54852 4.77425 3.74653 4.85346 3.9604 4.85346C4.39604 4.85346 4.75248 5.2099 4.75248 5.64554Z" fill="#304FFE"/>
<path d="M20.2614 6.9604C20.2614 7.39604 19.905 7.75248 19.4693 7.75248C18.8356 7.75248 18.2337 7.99802 17.7822 8.44951C17.3386 8.90099 17.0931 9.49505 17.0931 10.1287C17.0931 10.5644 16.7366 10.9208 16.301 10.9208C15.8574 10.9208 15.5089 10.5644 15.5089 10.1287C15.5089 8.82178 14.4396 7.75248 13.1327 7.75248C12.6891 7.75248 12.3406 7.39604 12.3406 6.9604C12.3406 6.52475 12.6891 6.16832 13.1327 6.16832C13.7584 6.16832 14.3604 5.92277 14.8119 5.47129C15.2555 5.0198 15.5089 4.42574 15.5089 3.79208C15.5089 3.35644 15.8574 3 16.301 3C16.7366 3 17.0931 3.35644 17.0931 3.79208C17.0931 4.42574 17.3386 5.0198 17.7901 5.47921C18.2337 5.92277 18.8356 6.16832 19.4693 6.16832C19.905 6.16832 20.2614 6.52475 20.2614 6.9604Z" fill="#304FFE"/>
</svg>