<svg xmlns="http://www.w3.org/2000/svg" width="32" height="32" viewBox="0 0 32 32" fill="none">
  <rect width="32" height="32" fill="white"/>
  <path fill-rule="evenodd" clip-rule="evenodd" d="M16.4298 32C3.3118 26.2758 2 16.7354 2 5.96276C2 -2.02729 30.8993 -1.94779 30.8993 5.96276C30.8993 16.7354 29.5875 26.2758 16.4298 32ZM8.99627 12.6808H14.4025V7.23481H18.4969V12.6808H23.9031V16.7354H18.4969V22.1416H14.4025V16.7354H8.99627V12.6808ZM16.4298 29.4162C26.9242 24.487 28.554 16.9342 28.554 5.96276C28.554 5.88326 28.554 5.84351 28.5143 5.76401C28.1962 4.69071 25.9304 3.81618 25.0161 3.53792C22.3528 2.66339 19.2522 2.34538 16.4298 2.34538C13.6472 2.34538 10.5863 2.66339 7.88322 3.49817C6.92919 3.81618 4.7031 4.69071 4.38509 5.72425C4.34534 5.80376 4.34534 5.88326 4.34534 5.96276C4.34534 16.9342 5.9354 24.487 16.4298 29.4162ZM16.4298 30.5292C27.6795 25.4012 29.5478 17.5305 29.5478 5.96276C29.5478 5.80376 29.5478 5.64475 29.4683 5.48574C29.031 3.97519 26.6459 2.9814 25.3341 2.54413C22.5515 1.6696 19.3317 1.35159 16.4298 1.35159C13.5677 1.35159 10.3478 1.6696 7.56521 2.54413C6.25341 2.9814 3.86832 3.93544 3.3913 5.44599C3.35155 5.605 3.3118 5.80376 3.3118 5.96276C3.3118 17.5305 5.18012 25.4012 16.4298 30.5292Z" fill="#304FFE"/>
</svg>