<svg xmlns="http://www.w3.org/2000/svg" width="32" height="32" viewBox="0 0 32 32" fill="none">
  <rect width="32" height="32" fill="white"/>
  <path d="M29.2296 7H16.6955V8.39268H18.7845C19.1539 8.39268 19.5081 8.53941 19.7693 8.80059C20.0305 9.06177 20.1772 9.416 20.1772 9.78536V11.178C20.1772 11.5474 20.0305 11.9016 19.7693 12.1628C19.5081 12.424 19.1539 12.5707 18.7845 12.5707H16.6955C16.6955 12.7554 16.6221 12.9325 16.4915 13.0631C16.361 13.1937 16.1838 13.2671 15.9992 13.2671C15.8145 13.2671 15.6374 13.1937 15.5068 13.0631C15.3762 12.9325 15.3028 12.7554 15.3028 12.5707H13.2138C12.8444 12.5707 12.4902 12.424 12.229 12.1628C11.9678 11.9016 11.8211 11.5474 11.8211 11.178V9.78536C11.8211 9.416 11.9678 9.06177 12.229 8.80059C12.4902 8.53941 12.8444 8.39268 13.2138 8.39268H15.3028V7H2.7687C-0.0166615 20.5717 -0.0862955 20.5229 0.0320824 20.9268C0.470777 22.5771 4.04996 23.9768 9.0845 24.6661C8.91042 24.2135 8.83382 24.5547 13.2138 17.2501V15.3561C13.2138 15.1714 13.2872 14.9943 13.4178 14.8637C13.5483 14.7331 13.7255 14.6597 13.9101 14.6597C14.0948 14.6597 14.2719 14.7331 14.4025 14.8637C14.5331 14.9943 14.6065 15.1714 14.6065 15.3561V20.9268C14.6065 21.1115 14.5331 21.2886 14.4025 21.4192C14.2719 21.5498 14.0948 21.6231 13.9101 21.6231C13.7255 21.6231 13.5483 21.5498 13.4178 21.4192C13.2872 21.2886 13.2138 21.1115 13.2138 20.9268V19.9589C10.9716 23.6913 10.3658 24.7427 10.2961 24.8333C12.4222 25.0476 14.5589 25.1383 16.6955 25.1048C16.6955 24.8333 16.3473 25.453 21.5699 17.2501V15.3561C21.5699 15.1714 21.6432 14.9943 21.7738 14.8637C21.9044 14.7331 22.0815 14.6597 22.2662 14.6597C22.4509 14.6597 22.628 14.7331 22.7586 14.8637C22.8892 14.9943 22.9626 15.1714 22.9626 15.3561V20.9268C22.9626 21.1115 22.8892 21.2886 22.7586 21.4192C22.628 21.5498 22.4509 21.6231 22.2662 21.6231C22.0815 21.6231 21.9044 21.5498 21.7738 21.4192C21.6432 21.2886 21.5699 21.1115 21.5699 20.9268V19.8335L18.2483 25.0561C25.6365 24.7636 31.4022 23.0506 31.9662 20.9268C32.0777 20.5438 32.0777 20.7806 29.2296 7Z" fill="#304FFE"/>
  <path d="M18.7845 9.78536H13.2138V11.178H18.7845V9.78536Z" fill="#304FFE"/>
</svg>