<svg xmlns="http://www.w3.org/2000/svg" width="32" height="32" viewBox="0 0 32 32" fill="none">
  <path d="M30.8112 18.3235C31.2243 17.4401 31.0235 16.484 30.4922 16.2367C29.9617 15.9885 26.9101 14.565 26.9101 14.565C27.4483 11.909 29.312 12.994 29.6718 11.7616C30.0315 10.5281 30.6376 8.76422 30.8635 7.35719C31.0895 5.95016 30.3884 5.18507 29.9297 4.97077C29.472 4.75744 28.4354 4.71089 27.5016 5.78919C26.5688 6.86653 25.6078 8.46556 24.8941 9.53319C24.1823 10.6008 26.21 11.331 24.5208 13.4508C24.5208 13.4508 21.4701 12.0273 20.9397 11.78C20.4083 11.5317 19.5472 11.9933 19.1351 12.8777L24.9736 15.6006L30.8112 18.3235ZM27.7799 7.06919C28.0282 6.53683 28.6604 6.30798 29.1908 6.55622C29.7232 6.8035 29.952 7.43477 29.7048 7.96713C29.4575 8.49756 28.8252 8.72835 28.2939 8.4801C27.7625 8.23186 27.5326 7.60059 27.7799 7.06919Z" fill="#304FFE"/>
  <path d="M18.1527 14.9821L29.8307 20.4274L30.5634 18.8561L18.8854 13.4107L18.1527 14.9821Z" fill="#304FFE"/>
  <path d="M13.9384 22.6842C13.9064 22.5921 13.889 22.498 13.8667 22.404C13.7513 22.404 13.6815 22.404 13.6815 22.404C13.6815 22.404 10.7045 22.404 9.55442 22.404C8.40533 22.404 9.35273 21.0871 10.6376 21.0871C11.9215 21.0871 13.6815 21.0871 13.6815 21.0871C13.6815 21.0871 13.7775 21.0871 13.9239 21.0871C13.9539 20.9931 13.9801 20.899 14.0228 20.8088L14.5813 19.6113C14.0548 19.6113 13.6815 19.6113 13.6815 19.6113C13.6815 19.6113 11.7838 19.6113 10.3971 19.6113C10.0373 19.6113 9.70182 19.4212 9.42255 19.1439H14.7985L15.103 18.4874H8.94448C8.85818 18.3206 8.78933 18.147 8.74279 17.9793H15.3425L15.649 17.3208H8.69042C8.73988 17.0454 8.90667 16.8554 9.23055 16.8554C10.4688 16.8554 13.6815 16.8554 13.6815 16.8554C13.6815 16.8554 14.7336 16.8554 15.8652 16.8554L17.1413 14.1218C15.5733 14.2391 14.24 14.2159 13.6815 14.2159C12.481 14.2159 7.73236 14.3332 4.69818 12.8971C4.67782 12.869 4.65455 12.8418 4.63418 12.8117C5.21891 11.2651 6.7937 8.12326 8.672 8.12326H18.689C19.8904 8.12326 20.9678 9.41005 21.7396 10.7434L23.6664 11.6413C22.9246 9.92496 21.2296 6.81126 18.688 6.81126H8.67103C5.86085 6.81126 4.08048 10.6299 3.48315 12.1407C3.11467 11.7945 2.57842 11.5162 1.81236 11.5162C1.81236 11.5162 1.248 11.5162 0.804848 11.5162C0.362667 11.5162 0 11.6384 0 12.5635C0 13.3451 0.292848 13.7524 1.69018 13.861C1.13648 14.4437 0.693333 15.2282 0.693333 16.259C0.693333 19.0304 0.693333 19.6151 0.693333 20.7817C0.693333 21.6854 0.787394 23.109 2.24873 23.7102V25.3044C2.24873 25.7892 2.64048 26.181 3.12533 26.181H6.70061C7.18255 26.181 7.5743 25.7892 7.5743 25.3044V23.9914C10.5406 23.9914 13.6805 23.9914 13.6805 23.9914C13.6805 23.9914 14.2264 23.9914 15.073 23.9914C14.5484 23.7024 14.145 23.2505 13.9384 22.6842ZM6.29236 22.404C5.78521 22.404 4.87855 22.404 4.43636 22.404C3.80024 22.404 2.79176 21.2374 3.53648 21.2374C3.96024 21.2374 4.48679 21.2374 5.14812 21.2374C5.75418 21.2374 6.18764 21.6845 6.42909 22.0239C6.58036 22.2333 6.64824 22.404 6.29236 22.404ZM7.03806 18.2246C6.16048 18.2246 4.40242 18.2246 3.45018 18.2246C2.35152 18.2246 2.28945 17.2753 2.88873 16.5228C3.42206 15.8556 4.86691 15.8595 5.79491 16.2193C7.77115 16.9853 7.91758 18.2246 7.03806 18.2246Z" fill="#304FFE"/>
  <path d="M15.1825 21.3499C14.9101 21.9356 15.1631 22.6338 15.7498 22.9063L16.7622 23.3776L19.1942 20.3124L18.6143 24.2425L21.5476 25.6098L23.7993 23.429L23.4783 26.5107L25.3042 27.3621C25.8899 27.6355 26.5871 27.3824 26.8606 26.7957L29.5835 20.9562L17.9054 15.5114L15.1825 21.3499Z" fill="#304FFE"/>
</svg>