<svg xmlns="http://www.w3.org/2000/svg" width="32" height="32" viewBox="0 0 32 32" fill="none">
  <rect width="32" height="32" fill="white"/>
  <path d="M0.933333 30.4667H3.73333C3.73333 30.2667 3.66667 30.0667 3.66667 29.8667C3.66667 27.8 5.33333 26.2 7.33333 26.2C9.4 26.2 11.0667 27.9333 11 30C11 30.1333 11 30.3333 10.9333 30.4667H20.2667C20.2667 30.2667 20.2 30.0667 20.2 29.8667C20.2 27.6 22.3333 25.7333 24.6667 26.2667C26.2 26.6 27.3333 27.8667 27.5333 29.4C27.6 29.7333 27.6 30.0667 27.5333 30.4667H30.1333C30.8 30.4667 31.3333 29.8667 31.2 29.2C30.6 24.9333 26.8667 21.6 22.4667 21.6H22.1333L16.7333 15.3333C16.5333 15.0667 16.2 14.9333 15.8667 14.9333H4.86667C4.33333 14.9333 3.86667 15.2667 3.73333 15.8L2.26667 21.6H2.13333C0.933334 21.6 0 22.5333 0 23.7333V29.5333C0 30 0.4 30.4667 0.933333 30.4667ZM19.0667 21.6H11.4V17.2667H15.3333L19.0667 21.6ZM5.73333 17.2H9.06667V21.5333H4.66667L5.73333 17.2Z" fill="#304FFE"/>
  <path d="M7.33333 32C8.51154 32 9.46666 31.0449 9.46666 29.8667C9.46666 28.6885 8.51154 27.7333 7.33333 27.7333C6.15512 27.7333 5.2 28.6885 5.2 29.8667C5.2 31.0449 6.15512 32 7.33333 32Z" fill="#304FFE"/>
  <path d="M23.8667 32C25.0449 32 26 31.0449 26 29.8667C26 28.6885 25.0449 27.7333 23.8667 27.7333C22.6885 27.7333 21.7333 28.6885 21.7333 29.8667C21.7333 31.0449 22.6885 32 23.8667 32Z" fill="#304FFE"/>
  <path d="M24.9333 4.06667H16.2667V0H14.4V4.06667H5.73332C4.53332 4.06667 3.59999 5 3.59999 6.2H27.0667C27.0667 5 26.0667 4.06667 24.9333 4.06667Z" fill="#304FFE"/>
  <path d="M24.7333 10.3333C25.4 10.3333 26 9.80001 26 9.06668C26 8.40001 24.7333 6.80001 24.7333 6.80001C24.7333 6.80001 23.4667 8.40001 23.4667 9.06668C23.4667 9.73334 24 10.3333 24.7333 10.3333Z" fill="#304FFE"/>
  <path d="M20.7333 13C21.4 13 22 12.4667 22 11.7333C22 11.0667 20.7333 9.46667 20.7333 9.46667C20.7333 9.46667 19.4667 11.0667 19.4667 11.7333C19.4667 12.4 20 13 20.7333 13Z" fill="#304FFE"/>
  <path d="M16.6667 10.3333C17.3333 10.3333 17.9333 9.80001 17.9333 9.06668C17.9333 8.40001 16.6667 6.80001 16.6667 6.80001C16.6667 6.80001 15.4 8.40001 15.4 9.06668C15.4 9.73334 16 10.3333 16.6667 10.3333Z" fill="#304FFE"/>
  <path d="M12.6667 13C13.3333 13 13.9333 12.4667 13.9333 11.7333C13.9333 11.0667 12.6667 9.46667 12.6667 9.46667C12.6667 9.46667 11.4 11.0667 11.4 11.7333C11.4 12.4 11.9333 13 12.6667 13Z" fill="#304FFE"/>
  <path d="M8.59999 10.3333C9.26666 10.3333 9.86666 9.80001 9.86666 9.06668C9.86666 8.40001 8.59999 6.80001 8.59999 6.80001C8.59999 6.80001 7.33333 8.40001 7.33333 9.06668C7.39999 9.73334 7.93333 10.3333 8.59999 10.3333Z" fill="#304FFE"/>
  <path d="M4.59999 13C5.26666 13 5.86666 12.4667 5.86666 11.7333C5.86666 11.0667 4.59999 9.46667 4.59999 9.46667C4.59999 9.46667 3.33333 11.0667 3.33333 11.7333C3.33333 12.4 3.93333 13 4.59999 13Z" fill="#304FFE"/>
</svg>