<svg xmlns="http://www.w3.org/2000/svg" width="20" height="20" viewBox="0 0 20 20" fill="none">
  <circle cx="10" cy="10" r="10" fill="#E0E0E0"/>
  <path d="M15.6213 10.6609C15.6213 10.6609 16.5317 9.13789 15.0396 8.87535H12.5071C12.5071 8.87535 13.9503 7.29273 13.3806 5.62161C13.3806 5.62161 13.0008 4.86832 12.3552 5.02024C12.3552 5.02024 11.7855 5.19428 11.8236 6.18169C11.8236 6.18169 11.8236 7.1992 10.9501 7.76879C10.0767 8.33852 8.47055 9.43584 8.28068 9.77763C8.28068 9.77763 7.5005 10.4193 6.94043 10.2674V14.6728C6.94043 14.6728 7.92056 14.3361 10.3804 15.7362C11.8411 15.7362 14.0263 15.7362 14.0263 15.7362C14.0263 15.7362 15.6593 15.5464 15.2796 14.1411C15.2796 14.1411 16.305 13.4955 15.6974 12.3941C15.6973 12.3941 16.4266 11.5357 15.6213 10.6609Z" fill="#304FFE"/>
  <path d="M4.60768 15.3162H5.77263C6.10825 15.3162 6.38031 15.0441 6.38031 14.7085V10.4632C6.38031 10.1275 6.10825 9.85548 5.77263 9.85548H4.60768C4.27205 9.85548 4 10.1275 4 10.4632V14.7085C4 15.0441 4.27205 15.3162 4.60768 15.3162Z" fill="#304FFE"/>
</svg>