<svg xmlns="http://www.w3.org/2000/svg" width="12" height="12" viewBox="0 0 12 12" fill="none">
  <path fill-rule="evenodd" clip-rule="evenodd" d="M6 0C2.68629 0 0 2.68629 0 6C0 9.31371 2.68629 12 6 12C9.31371 12 12 9.31371 12 6C12 2.68629 9.31371 0 6 0ZM9.68232 4.73106C10.0861 4.35422 10.1079 3.72143 9.73106 3.31768C9.35422 2.91393 8.72143 2.89211 8.31768 3.26894L4.71429 6.63211L3.68232 5.66894C3.27857 5.29211 2.64578 5.31393 2.26894 5.71768C1.89211 6.12143 1.91393 6.75422 2.31768 7.13106L4.03197 8.73106C4.41617 9.08965 5.0124 9.08965 5.3966 8.73106L9.68232 4.73106Z" fill="#11AD34"/>
</svg>