<svg xmlns="http://www.w3.org/2000/svg" width="32" height="32" viewBox="0 0 32 32" fill="none">
  <path d="M16.0067 1.4153e-06C12.8422 -0.0013293 9.7484 0.935755 7.11647 2.69275C4.48454 4.44975 2.43273 6.94775 1.2205 9.87087C0.00827396 12.794 -0.309927 16.0109 0.306138 19.1149C0.922202 22.2188 2.44486 25.0704 4.68157 27.309C6.91828 29.5476 9.76857 31.0726 12.872 31.6913C15.9755 32.3099 19.1927 31.9944 22.1168 30.7846C25.0409 29.5748 27.5406 27.5251 29.2998 24.8947C31.059 22.2642 31.9987 19.1711 32 16.0066C32.0012 13.9054 31.5884 11.8245 30.7853 9.88286C29.9821 7.94118 28.8043 6.17675 27.3191 4.69033C25.834 3.20392 24.0705 2.02464 22.1295 1.21987C20.1885 0.415089 18.108 0.000576049 16.0067 1.4153e-06ZM23.7028 23.3419C23.3804 23.6935 23.0271 24.0155 22.6472 24.304C20.8389 25.7669 18.5991 26.5933 16.274 26.6555H16.0067C15.6139 26.6536 15.2215 26.6313 14.8309 26.5887C12.513 26.3281 10.3445 25.3142 8.6581 23.7027V23.6893C8.31019 23.3681 7.98849 23.0196 7.69605 22.6472C6.23715 20.8376 5.41535 18.5976 5.35785 16.2739V16.0066C5.35975 15.6138 5.38207 15.2214 5.42472 14.8308C5.67637 12.5104 6.69148 10.3391 8.31069 8.658C8.6319 8.31008 8.98041 7.9884 9.3529 7.69604C11.1619 6.2253 13.4087 5.39802 15.7395 5.34446H16.0067C16.3951 5.34598 16.7831 5.36828 17.1691 5.41125C19.4944 5.65996 21.6708 6.67531 23.3554 8.29731C23.7002 8.62629 24.0217 8.97898 24.3173 9.35281C25.7765 11.1674 26.5981 13.4116 26.6555 15.7394V16.0066C26.6537 16.3995 26.6314 16.7919 26.5887 17.1824C26.3398 19.4998 25.3241 21.6676 23.7028 23.3419Z" fill="#304FFE"/>
  <path d="M22.567 9.70022C21.2426 8.29107 19.4913 7.35676 17.5833 7.04137C17.1214 6.94932 16.6514 6.90453 16.1804 6.9077C16.1232 6.89662 16.0649 6.89213 16.0067 6.89433C14.1348 6.88589 12.3074 7.46543 10.7825 8.55118C10.3966 8.80733 10.0384 9.10285 9.71359 9.43298C8.30538 10.76 7.36738 12.5094 7.04136 14.4167C6.94934 14.8831 6.90459 15.3576 6.90778 15.8329C6.8967 15.8901 6.89221 15.9484 6.89441 16.0066C6.89237 17.8735 7.4714 19.6947 8.55118 21.2175C8.816 21.6048 9.11564 21.967 9.44635 22.2998C10.7764 23.7016 12.5251 24.6345 14.4301 24.9586C14.892 25.0507 15.3621 25.0954 15.833 25.0922C15.8902 25.1033 15.9485 25.1078 16.0067 25.1056C17.8725 25.1143 19.6944 24.5397 21.2176 23.4622C21.6049 23.1974 21.9671 22.8977 22.2999 22.567C23.7081 21.24 24.6461 19.4906 24.9721 17.5832C25.0641 17.1214 25.1088 16.6513 25.1057 16.1803C25.1168 16.1231 25.1213 16.0649 25.119 16.0066C25.1295 14.1344 24.5498 12.3065 23.4623 10.7825C23.2016 10.3921 22.9016 10.0295 22.567 9.70022ZM21.7921 10.8359C20.8435 12.0518 19.5875 13.2142 18.0643 13.5081H18.0509C17.7743 13.2816 17.463 13.1012 17.129 12.9737C17.8506 11.5841 17.9441 9.9407 17.7971 8.44426C19.3474 8.80079 20.7456 9.6378 21.7921 10.8359ZM16.0067 17.8906C15.6322 17.8919 15.2658 17.782 14.9538 17.5748C14.6419 17.3676 14.3985 17.0724 14.2546 16.7266C14.1107 16.3809 14.0726 16.0002 14.1454 15.6328C14.2181 15.2655 14.3983 14.928 14.6631 14.6632C14.9279 14.3983 15.2654 14.2181 15.6328 14.1454C16.0001 14.0726 16.3808 14.1106 16.7266 14.2546C17.0723 14.3985 17.3675 14.6418 17.5748 14.9538C17.782 15.2657 17.8919 15.6321 17.8906 16.0066C17.8909 16.2541 17.8424 16.4992 17.7478 16.7279C17.6532 16.9566 17.5145 17.1644 17.3395 17.3394C17.1645 17.5144 16.9567 17.6532 16.728 17.7478C16.4993 17.8424 16.2542 17.8909 16.0067 17.8906ZM16.0067 8.23044C16.1498 8.22601 16.2929 8.23497 16.4343 8.25719C16.6347 9.79375 16.5679 11.5039 15.6861 12.7866C15.3304 12.8247 14.983 12.9194 14.6572 13.0672C14.1896 11.5841 13.094 10.3549 11.9316 9.39286C13.1548 8.63256 14.5665 8.22989 16.0067 8.23044ZM10.836 10.2213C12.0652 11.1699 13.2276 12.4259 13.5082 13.9491V13.9624C13.2857 14.2444 13.1098 14.5602 12.9871 14.8977C11.5976 14.1628 9.95408 14.056 8.44426 14.2163C8.80086 12.666 9.63789 11.2679 10.836 10.2213ZM8.23052 16.0066C8.2261 15.8636 8.23506 15.7204 8.25727 15.5791C9.79375 15.3787 11.5174 15.4455 12.8 16.3407C12.8364 16.6924 12.9312 17.0356 13.0806 17.3561C11.5842 17.8237 10.355 18.9194 9.39294 20.0818C8.63265 18.8585 8.22998 17.4469 8.23052 16.0066V16.0066ZM10.2213 21.1774C11.17 19.9348 12.4393 18.7724 13.9758 18.5052C14.2481 18.7273 14.5551 18.9034 14.8844 19.0263C14.1629 20.4158 14.0693 22.0593 14.2163 23.5557C12.6693 23.1987 11.2726 22.3672 10.2213 21.1774V21.1774ZM16.0067 23.7695C15.8637 23.7739 15.7205 23.765 15.5792 23.7428C15.3787 22.1929 15.4589 20.4827 16.3408 19.2133C16.6925 19.177 17.0357 19.0821 17.3562 18.9327C17.8238 20.4292 18.9061 21.6585 20.0685 22.6204C18.8497 23.3781 17.4418 23.7764 16.0067 23.7695V23.7695ZM21.1909 21.7787C19.9483 20.8434 18.7859 19.5741 18.5053 18.0376C18.7275 17.7604 18.9035 17.449 19.0264 17.1156C20.0685 17.6634 21.2577 17.8639 22.4201 17.8639C22.804 17.862 23.1875 17.8397 23.5691 17.7971C23.2087 19.3389 22.3775 20.7304 21.1909 21.7787V21.7787ZM23.7829 16.0066C23.7874 16.1497 23.7784 16.2928 23.7562 16.4342C22.2197 16.6347 20.496 16.5545 19.2134 15.6726C19.177 15.3209 19.0822 14.9777 18.9328 14.6571C20.4293 14.1895 21.6585 13.0939 22.6205 11.9315C23.3808 13.1547 23.7835 14.5664 23.7829 16.0066V16.0066Z" fill="#304FFE"/>
</svg>